PathFileType	4	(X/Y/Z)	Patient4_TMGait_0pt4_02_right_32.trc.trc
DataRate	CameraRate	NumFrames	NumMarkers	Units	OrigDataRate	OrigDataStartFrame	OrigNumFrames
76.923076923077	76.923076923077	4	33	mm	76.923076923077	53	       141
Frame#	Time	Sacral			L.Shoulder			Chest			R.Shoulder			Neck			R.ASIS			L.ASIS			R.Thigh.Superior			R.Thigh.Lateral			R.Thigh.Inferior			R.Patella			L.Thigh.Superior			L.Thigh.Lateral			L.Thigh.Inferior			L.Patella			L.Shank.Superior			L.Shank.Lateral			L.Shank.Inferior			R.Shank.Superior			R.Shank.Lateral			R.Shank.Inferior			R.Heel			R.Midfoot.Superior			R.Midfoot.Lateral			R.Toe			L.Heel			L.Midfoot.Lateral			L.Midfoot.Superior			L.Toe			L.Elbow			L.Wrist			R.Elbow			R.Wrist			
		X1	Y1	Z1	X2	Y2	Z2	X3	Y3	Z3	X4	Y4	Z4	X5	Y5	Z5	X6	Y6	Z6	X7	Y7	Z7	X8	Y8	Z8	X9	Y9	Z9	X10	Y10	Z10	X11	Y11	Z11	X12	Y12	Z12	X13	Y13	Z13	X14	Y14	Z14	X15	Y15	Z15	X16	Y16	Z16	X17	Y17	Z17	X18	Y18	Z18	X19	Y19	Z19	X20	Y20	Z20	X21	Y21	Z21	X22	Y22	Z22	X23	Y23	Z23	X24	Y24	Z24	X25	Y25	Z25	X26	Y26	Z26	X27	Y27	Z27	X28	Y28	Z28	X29	Y29	Z29	X30	Y30	Z30	X31	Y31	Z31	X32	Y32	Z32	X33	Y33	Z33	

53	42.896000000000	850.762589830210	1005.262203517478	528.626900073711	1013.607872201273	1430.515904410161	326.737611143650	1130.523083897416	1368.108024016141	480.357176488083	1061.476632863967	1443.378065596518	659.742612636850	1007.668009298615	1495.658274712181	481.836791587220	1089.601676580404	943.331087877102	625.234331136052	1050.649682614766	965.598207704862	353.935366133969	1120.089955837114	737.725878466177	590.452670263049	1039.636756693551	630.525931290199	656.478242850489	1107.756815527758	576.877004624191	570.437400543996	1103.433426907493	489.226549796135	575.819405388579	1138.462273790656	784.896966174818	373.121485147230	1092.163178744463	659.026006297329	292.884716133282	1201.633676662076	600.912174507276	345.886941790968	1221.446782495002	518.850809924857	335.797035390888	1171.439045628141	446.150587415845	324.180170577175	1046.271055573320	367.833368590928	278.247721535931	1078.383605292111	236.907341505765	320.765473295364	1072.025277638834	400.484281681292	584.225746054365	998.314901295056	299.375892118941	646.926587580612	1032.028955056837	203.787280763482	581.524128655047	891.018454432415	42.318989781484	554.043000692372	1061.726250534812	96.969612959676	590.333701923364	973.906982425107	37.048925541450	629.544578871897	1182.296301341489	44.018666018723	618.513046084265	923.075237543606	113.632747277945	363.132070465645	982.842263350574	95.922602141154	274.509351583646	1081.869444508810	133.665561101015	291.024093364598	1185.575810040717	55.117556601543	244.052184091056	968.776489324424	1073.644065906887	229.785850728241	1005.179883249734	815.645098679444	223.507426069637	1142.168684787547	1115.377816887326	799.913287458813	1389.222833512137	1066.339195894237	753.941430359022	
54	42.909000000000	849.731187059374	1006.181022237365	530.147362024476	1012.584997946696	1430.706578643806	327.248135565104	1130.692589046446	1367.753739719325	479.684807751581	1063.780838435552	1443.490813555750	659.691537866042	1008.428217495818	1495.771467253642	482.335580800768	1088.827500904513	942.840394632951	624.467105417151	1047.863129161364	966.166520517415	353.486034929185	1117.371886848123	737.095262400230	589.186454383751	1036.727372214497	630.513724260583	656.194171306948	1103.545627479541	576.423603415921	569.653873432799	1098.733953388127	489.038890117082	575.301782060564	1135.450820983289	785.895333548308	373.072108739376	1090.038541618402	660.067729587268	292.671939052939	1198.981827901999	602.264560417158	347.038428469541	1220.289904035133	521.783824516551	336.364015229334	1173.752355081447	448.570302834825	324.047229267479	1053.589023201530	363.233303852648	277.685190831714	1093.758735951483	233.944732511286	319.527724700231	1067.221139881305	400.280833652201	583.923906717564	993.550904988169	299.250344537334	646.829433588252	1026.939110583553	203.648163152489	581.375281308754	885.735645805535	42.266207492210	554.082357967238	1056.436243284929	96.900756003789	590.196194530674	968.653070937651	37.023794238133	629.565009192549	1177.025730876519	44.126109979409	618.484823830342	946.640335466011	100.222416882290	361.717959491129	1007.228589866224	87.408675972603	272.682982236970	1103.670088842030	131.466646428145	289.136613691105	1212.372868910078	60.507397383386	241.112750931195	959.392260917100	1074.609870189949	231.929116922428	987.085425557230	815.603589661086	228.339316985642	1150.879643464217	1117.882477101269	799.481559807266	1399.404257915391	1084.627077888635	750.274653219410	
55	42.922000000000	848.772115945132	1007.072610944683	531.472959312337	1011.622250059244	1430.910658459619	327.622973082143	1130.919192486667	1367.345909045131	478.836801173338	1066.169311582860	1443.499554318113	659.471156686920	1009.274310584273	1495.834825067931	482.751407079319	1088.079728911908	942.322565001174	623.558075771747	1045.204591056604	966.617214448732	352.893639904928	1114.649070158844	736.452065660224	587.881888870430	1033.803415515964	630.512359892531	655.902500213229	1099.290521712718	575.967634632150	568.870572581426	1093.988697883810	488.857962882709	574.814152642477	1132.281616839751	786.551668776133	373.075902696100	1087.869097345757	660.947282436278	292.270359691545	1195.966558433171	603.234729652109	348.333523406219	1218.749525814794	524.457625148269	337.037636318248	1175.720484057118	450.873002150606	324.093511272212	1061.097031697339	358.816261808264	276.882326728545	1108.852814202942	231.626901349401	318.544158808229	1062.380120609741	400.091977540875	583.635461328926	988.770439520411	299.133090264273	646.755513559153	1021.836731442194	203.520816338614	581.242783225277	880.453192135668	42.222895134374	554.126511103473	1051.147602189623	96.824860336132	590.062584742818	963.401312143117	36.996877784911	629.586702974709	1171.757577542618	44.210279949767	618.459266281545	970.093116296958	88.289646316382	360.033122090834	1031.713855668065	80.027108820681	271.030393662999	1125.185318236197	130.096734834799	287.829979312370	1238.528824826643	66.580070843574	239.684280125999	949.883931502902	1075.868750995619	233.956191226914	969.773220650938	816.226034914515	233.107136913668	1159.385835902804	1120.276830672481	798.702502984230	1408.348027382993	1102.302279451437	746.444155537396	
56	42.935000000000	847.871988513696	1007.933745169066	532.583512913764	1010.720865457673	1431.132221510906	327.852390583339	1131.188206652637	1366.893964859857	477.818202499688	1068.607128269082	1443.410784663506	659.078687948229	1010.178222597793	1495.859902382224	483.058639114592	1087.358250841849	941.793515098964	622.522605723470	1042.693243236784	966.952351633402	352.163739908646	1111.936858260065	735.794573145573	586.584394600325	1030.862925346442	630.517625183027	655.605077729744	1095.016567463068	575.503806314040	568.100632957877	1089.214247754140	488.673068266407	574.349248527757	1129.018792816425	786.922643202943	373.139918580183	1085.722560906978	661.692936296459	291.694237314391	1192.731799990700	603.889303565494	349.657706371803	1216.939773566023	526.895206424440	337.773199129381	1177.388844665874	453.067940608610	324.313324250741	1068.703149503414	354.757527782741	275.849323926137	1123.367889827065	230.048630113535	317.857556613859	1057.516027555577	399.915393863803	583.356593361642	983.978380675460	299.029686940664	646.700959205490	1016.727206177628	203.407213640356	581.125857032003	875.174391128543	42.187761889661	554.178387743747	1045.859739089093	96.745109260042	589.936116781958	958.150929829935	36.969459662015	629.611313909132	1166.491412540717	44.273265459912	618.437726806953	992.869160940636	78.135775894547	358.119311501099	1055.793361178761	73.951508241358	269.630336724730	1145.993788743584	129.604054118177	287.182089025167	1263.574253303839	73.182610968859	239.940092599676	940.370571092875	1077.414503436368	235.886295202070	953.266036153691	817.413322998166	237.750588821621	1167.652681332995	1122.539631620596	797.586371469331	1416.130230716135	1119.178458800084	742.500263827182	
